<svg width="236" height="179" viewBox="0 0 236 179" fill="none" xmlns="http://www.w3.org/2000/svg">
<path d="M236 178.433V-9.15527e-05L207.935 31.817C195.464 45.9922 195.464 68.9755 207.935 83.1507L208.614 83.8954C210.312 85.8214 210.312 88.9543 208.614 90.906C206.894 92.832 204.133 92.832 202.435 90.906L164.819 48.2264C158.912 41.524 149.316 41.524 143.408 48.2264C137.478 54.9288 137.478 65.8169 143.408 72.5193L197.682 134.125C199.289 135.922 199.289 138.85 197.682 140.673C196.098 142.471 193.518 142.471 191.911 140.673L155.268 99.0721C144.789 87.2081 127.837 87.2081 117.38 99.0721C106.901 110.936 106.901 130.196 117.38 142.06L141.349 169.255L126.841 171.515L60.9789 96.7866C53.4873 88.261 41.3108 88.261 33.7966 96.7866C26.3051 105.312 26.3051 119.128 33.7966 127.628C37.35 131.66 53.1026 149.533 55.3885 152.126C56.8597 153.796 56.8597 156.518 55.3659 158.212L55.298 158.289C53.8721 159.907 51.5409 159.907 50.115 158.289L43.3025 150.56C35.0867 141.238 21.7332 141.238 13.4948 150.56L0 178.433" fill="#FFD9E2" fill-opacity="0.5"/>
</svg>
