<svg width="582" height="394" viewBox="0 0 582 394" fill="none" xmlns="http://www.w3.org/2000/svg">
<path d="M581.914 393.281V0.000213623L512.801 70.1279C482.091 101.371 482.091 152.028 512.801 183.272L514.473 184.913C518.653 189.158 518.653 196.063 514.473 200.365C510.237 204.61 503.438 204.61 499.257 200.365L406.625 106.295C392.078 91.5228 368.446 91.5228 353.899 106.295C339.296 121.068 339.296 145.067 353.899 159.839L487.553 295.623C491.51 299.585 491.51 306.038 487.553 310.056C483.651 314.018 477.298 314.018 473.34 310.056L383.104 218.364C357.299 192.215 315.553 192.215 289.803 218.364C263.997 244.513 263.997 286.963 289.803 313.113L348.827 373.052L313.1 378.033L150.91 213.326C132.461 194.535 102.475 194.535 83.9711 213.326C65.5226 232.118 65.5226 262.569 83.9711 281.303C92.7216 290.19 131.514 329.583 137.143 335.3C140.766 338.979 140.766 344.979 137.087 348.714L136.92 348.884C133.409 352.45 127.668 352.45 124.157 348.884L107.38 331.847C87.148 311.301 54.264 311.301 33.9762 331.847L0.744141 393.281" fill="#F3FFFD" fill-opacity="0.2"/>
</svg>
