<svg width="81" height="80" viewBox="0 0 81 80" fill="none" xmlns="http://www.w3.org/2000/svg">
<path d="M21.9003 32.9L40.5003 69.2667L59.1003 32.9H21.9003ZM20.167 13.3667L7.16699 30.8H19.2337L20.167 13.3667ZM40.5003 11.4L22.6003 30.8H58.4003L40.5003 11.4ZM7.30033 32.9L37.6003 68.1667L19.567 32.9H7.30033ZM38.9337 10H38.4337L22.3003 11.7C22.3161 11.7544 22.3161 11.8122 22.3003 11.8667L21.4003 29.0333L38.9337 10ZM43.4003 68.1667L73.7003 32.9H61.4337L43.4003 68.1667ZM58.667 11.9333C58.6513 11.8789 58.6513 11.8211 58.667 11.7667L45.3337 10.3667L42.0003 10L59.5337 29.0333L58.667 11.9333ZM60.8337 13.3667L61.767 30.8H73.8337L66.4337 20.8667L60.8337 13.3667Z" fill="#B52423"/>
</svg>
