<svg width="40" height="41" viewBox="0 0 40 41" fill="none" xmlns="http://www.w3.org/2000/svg">
<g clip-path="url(#clip0_1645_10842)">
<path d="M38.1309 34.7795V40.0996H1.86914V34.7783C1.86914 32.2661 4.03501 29.1733 6.68087 27.9166L12.5684 25.1194L16.6554 33.6363L18.748 27.9627C19.1606 28.0407 19.5697 28.1448 20 28.1448C20.4303 28.1448 20.8382 28.0407 21.252 27.9627L23.2382 33.3573L27.2448 25.0248L33.3227 27.9154C35.965 29.1721 38.1309 32.2649 38.1309 34.7795ZM7.21761 16.1332V12.2909C7.21761 11.6395 7.55691 11.0685 8.06882 10.7398C8.7557 4.76001 13.8417 0.0996094 20.0024 0.0996094C26.163 0.0996094 31.2502 4.76001 31.9383 10.7398C32.449 11.0685 32.7883 11.6395 32.7883 12.2909V16.1332C32.7883 17.1535 31.9619 17.981 30.9405 17.981C29.919 17.981 29.0926 17.1535 29.0926 16.1332V15.3257C28.0925 20.3562 24.4098 25.026 20.0036 25.026C15.5973 25.026 11.9147 20.3562 10.9145 15.3257V16.1332C10.9145 16.9608 10.3647 17.6535 9.61401 17.8888C10.3494 20.3916 11.9809 22.5539 14.2342 23.9726C14.6504 23.8355 15.1753 23.8615 15.6848 24.1263C16.5029 24.5519 16.9203 25.3795 16.6105 25.9706C16.302 26.5617 15.3893 26.6942 14.5664 26.2674C13.9658 25.9541 13.5852 25.428 13.545 24.9362C10.9641 23.2858 9.13402 20.7593 8.37857 17.8451C7.69996 17.5732 7.21761 16.9111 7.21761 16.1332ZM9.32791 10.3083C9.38347 10.3118 9.43668 10.313 9.48988 10.3331C9.62347 10.3828 9.72041 10.4785 9.7878 10.5908C10.1886 10.7611 10.5078 11.072 10.704 11.4574C11.2491 6.34894 15.1977 3.64634 20 3.64634C24.8023 3.64634 28.751 6.34894 29.296 11.4574C29.5667 10.9266 30.081 10.5471 30.6969 10.4679C29.8977 5.27429 25.4123 1.28067 20 1.28067C14.6433 1.28185 10.1933 5.19389 9.32791 10.3083Z" fill="#B52423"/>
</g>
<defs>
<clipPath id="clip0_1645_10842">
<rect y="0.0996094" width="40" height="40" rx="6" fill="white"/>
</clipPath>
</defs>
</svg>
