<svg width="40" height="40" viewBox="0 0 40 40" fill="none" xmlns="http://www.w3.org/2000/svg">
<path d="M28 10.4326H3.95333C1.77333 10.4326 0 12.206 0 14.3853V28.4793C0 30.6593 1.77333 32.4326 3.95333 32.4326H8V39.0993C8 39.3746 8.16933 39.622 8.42667 39.7213C8.50467 39.7513 8.586 39.766 8.66667 39.766C8.85067 39.766 9.03133 39.6893 9.16 39.548L15.628 32.4326H28C30.18 32.4326 31.9533 30.6593 31.9533 28.48V14.386C31.9533 12.206 30.18 10.4326 28 10.4326Z" fill="#B52423"/>
<path d="M36.0477 0.479284L13.2863 0.432617C11.1063 0.432617 9.33301 2.20595 9.33301 4.38595V8.46728C9.33301 8.64462 9.40301 8.81395 9.52834 8.93928C9.65367 9.06395 9.82301 9.13395 9.99967 9.13395C9.99967 9.13395 10.0003 9.13395 10.001 9.13395L26.713 9.09928C32.6803 9.09928 33.333 10.4466 33.333 14.386V28.4799C33.333 28.5406 33.3263 28.6006 33.3237 28.6606L34.173 29.5946C34.3017 29.7359 34.4817 29.8126 34.6663 29.8126C34.747 29.8126 34.8283 29.7979 34.907 29.7679C35.1637 29.6686 35.333 29.4213 35.333 29.1459V22.4793H36.0463C38.2263 22.4793 39.9997 20.7059 39.9997 18.5266V4.43262C39.9997 2.25262 38.2263 0.479284 36.0477 0.479284Z" fill="#B52423"/>
</svg>
