<svg width="316" height="53" viewBox="0 0 316 53" fill="none" xmlns="http://www.w3.org/2000/svg">
<mask id="path-1-inside-1_1885_2351" fill="white">
<path d="M19.9492 42.6918C16.2492 42.6918 12.9159 41.9251 9.94922 40.3918C6.98255 38.8251 4.64922 36.6585 2.94922 33.8918C1.28255 31.0918 0.449219 27.9251 0.449219 24.3918C0.449219 20.8585 1.28255 17.7085 2.94922 14.9418C4.64922 12.1418 6.98255 9.97513 9.94922 8.4418C12.9159 6.87513 16.2492 6.0918 19.9492 6.0918C23.3492 6.0918 26.3826 6.6918 29.0492 7.8918C31.7159 9.0918 33.9159 10.8251 35.6492 13.0918L28.1992 19.7418C26.0326 17.0085 23.4826 15.6418 20.5492 15.6418C18.0826 15.6418 16.0992 16.4418 14.5992 18.0418C13.0992 19.6085 12.3492 21.7251 12.3492 24.3918C12.3492 27.0585 13.0992 29.1918 14.5992 30.7918C16.0992 32.3585 18.0826 33.1418 20.5492 33.1418C23.4826 33.1418 26.0326 31.7751 28.1992 29.0418L35.6492 35.6918C33.9159 37.9585 31.7159 39.6918 29.0492 40.8918C26.3826 42.0918 23.3492 42.6918 19.9492 42.6918ZM52.4238 42.3918C49.3905 42.3918 46.6572 41.7918 44.2238 40.5918C41.8238 39.3585 39.9405 37.6751 38.5738 35.5418C37.2072 33.3751 36.5238 30.9251 36.5238 28.1918C36.5238 25.4585 37.2072 23.0251 38.5738 20.8918C39.9405 18.7251 41.8238 17.0418 44.2238 15.8418C46.6572 14.6418 49.3905 14.0418 52.4238 14.0418C55.4905 14.0418 58.2238 14.6418 60.6238 15.8418C63.0572 17.0418 64.9405 18.7251 66.2738 20.8918C67.6405 23.0251 68.3238 25.4585 68.3238 28.1918C68.3238 30.9251 67.6405 33.3751 66.2738 35.5418C64.9405 37.6751 63.0572 39.3585 60.6238 40.5918C58.2238 41.7918 55.4905 42.3918 52.4238 42.3918ZM52.4238 33.5918C53.7238 33.5918 54.7905 33.1251 55.6238 32.1918C56.4572 31.2251 56.8738 29.8918 56.8738 28.1918C56.8738 26.4918 56.4572 25.1751 55.6238 24.2418C54.7905 23.3085 53.7238 22.8418 52.4238 22.8418C51.1238 22.8418 50.0572 23.3085 49.2238 24.2418C48.3905 25.1751 47.9738 26.4918 47.9738 28.1918C47.9738 29.8918 48.3905 31.2251 49.2238 32.1918C50.0572 33.1251 51.1238 33.5918 52.4238 33.5918ZM108.061 14.0418C111.361 14.0418 113.994 15.0585 115.961 17.0918C117.961 19.1251 118.961 22.1918 118.961 26.2918V41.8918H107.661V28.2418C107.661 25.1085 106.644 23.5418 104.611 23.5418C103.544 23.5418 102.677 23.9418 102.011 24.7418C101.377 25.5418 101.061 26.8085 101.061 28.5418V41.8918H89.7606V28.2418C89.7606 25.1085 88.7439 23.5418 86.7105 23.5418C85.6439 23.5418 84.7772 23.9418 84.1105 24.7418C83.4772 25.5418 83.1605 26.8085 83.1605 28.5418V41.8918H71.8605V14.5418H82.6105V17.0918C84.6439 15.0585 87.2272 14.0418 90.3605 14.0418C92.1939 14.0418 93.8439 14.3918 95.3105 15.0918C96.7772 15.7585 97.9772 16.7918 98.9105 18.1918C100.011 16.8585 101.344 15.8418 102.911 15.1418C104.477 14.4085 106.194 14.0418 108.061 14.0418ZM160.062 14.0418C163.363 14.0418 165.996 15.0585 167.963 17.0918C169.963 19.1251 170.963 22.1918 170.963 26.2918V41.8918H159.663V28.2418C159.663 25.1085 158.646 23.5418 156.613 23.5418C155.546 23.5418 154.679 23.9418 154.012 24.7418C153.379 25.5418 153.062 26.8085 153.062 28.5418V41.8918H141.762V28.2418C141.762 25.1085 140.746 23.5418 138.712 23.5418C137.646 23.5418 136.779 23.9418 136.113 24.7418C135.479 25.5418 135.163 26.8085 135.163 28.5418V41.8918H123.863V14.5418H134.613V17.0918C136.646 15.0585 139.229 14.0418 142.363 14.0418C144.196 14.0418 145.846 14.3918 147.312 15.0918C148.779 15.7585 149.979 16.7918 150.913 18.1918C152.013 16.8585 153.346 15.8418 154.913 15.1418C156.479 14.4085 158.196 14.0418 160.062 14.0418ZM205.764 14.5418V41.8918H195.014V39.2918C194.014 40.3251 192.848 41.1085 191.514 41.6418C190.181 42.1418 188.764 42.3918 187.264 42.3918C183.798 42.3918 181.014 41.3418 178.914 39.2418C176.814 37.1085 175.764 33.9085 175.764 29.6418V14.5418H187.064V27.6918C187.064 29.5585 187.364 30.8918 187.964 31.6918C188.564 32.4918 189.448 32.8918 190.614 32.8918C191.714 32.8918 192.631 32.4585 193.364 31.5918C194.098 30.6918 194.464 29.2918 194.464 27.3918V14.5418H205.764ZM229.777 14.0418C233.143 14.0418 235.843 15.0585 237.877 17.0918C239.943 19.1251 240.977 22.1918 240.977 26.2918V41.8918H229.677V28.2418C229.677 25.1085 228.56 23.5418 226.327 23.5418C225.06 23.5418 224.027 23.9918 223.227 24.8918C222.46 25.7585 222.077 27.1418 222.077 29.0418V41.8918H210.777V14.5418H221.527V17.2418C222.593 16.1751 223.827 15.3751 225.227 14.8418C226.627 14.3085 228.143 14.0418 229.777 14.0418ZM245.884 14.5418H257.184V41.8918H245.884V14.5418ZM251.534 12.3418C249.501 12.3418 247.851 11.8085 246.584 10.7418C245.351 9.6418 244.734 8.25846 244.734 6.5918C244.734 4.92513 245.351 3.55846 246.584 2.4918C247.851 1.3918 249.501 0.841797 251.534 0.841797C253.601 0.841797 255.251 1.35846 256.484 2.3918C257.717 3.42513 258.334 4.75846 258.334 6.3918C258.334 8.12513 257.717 9.55846 256.484 10.6918C255.251 11.7918 253.601 12.3418 251.534 12.3418ZM282.343 40.9418C280.643 41.9085 278.326 42.3918 275.393 42.3918C271.559 42.3918 268.609 41.4751 266.543 39.6418C264.476 37.7751 263.443 34.9918 263.443 31.2918V24.2918H259.693V16.0418H263.443V8.3918H274.743V16.0418H280.343V24.2918H274.743V31.1918C274.743 32.0251 274.959 32.6751 275.393 33.1418C275.826 33.6085 276.393 33.8418 277.093 33.8418C278.059 33.8418 278.909 33.5918 279.643 33.0918L282.343 40.9418ZM315.152 14.5418L303.902 42.4418C302.469 46.0085 300.686 48.5085 298.552 49.9418C296.419 51.3751 293.802 52.0918 290.702 52.0918C289.169 52.0918 287.619 51.8585 286.052 51.3918C284.519 50.9585 283.302 50.3751 282.402 49.6418L286.152 41.8918C286.719 42.3251 287.352 42.6751 288.052 42.9418C288.786 43.2085 289.486 43.3418 290.152 43.3418C291.386 43.3418 292.319 42.9751 292.952 42.2418L281.452 14.5418H293.052L298.702 29.1918L304.452 14.5418H315.152Z"/>
</mask>
<path d="M19.9492 42.6918C16.2492 42.6918 12.9159 41.9251 9.94922 40.3918C6.98255 38.8251 4.64922 36.6585 2.94922 33.8918C1.28255 31.0918 0.449219 27.9251 0.449219 24.3918C0.449219 20.8585 1.28255 17.7085 2.94922 14.9418C4.64922 12.1418 6.98255 9.97513 9.94922 8.4418C12.9159 6.87513 16.2492 6.0918 19.9492 6.0918C23.3492 6.0918 26.3826 6.6918 29.0492 7.8918C31.7159 9.0918 33.9159 10.8251 35.6492 13.0918L28.1992 19.7418C26.0326 17.0085 23.4826 15.6418 20.5492 15.6418C18.0826 15.6418 16.0992 16.4418 14.5992 18.0418C13.0992 19.6085 12.3492 21.7251 12.3492 24.3918C12.3492 27.0585 13.0992 29.1918 14.5992 30.7918C16.0992 32.3585 18.0826 33.1418 20.5492 33.1418C23.4826 33.1418 26.0326 31.7751 28.1992 29.0418L35.6492 35.6918C33.9159 37.9585 31.7159 39.6918 29.0492 40.8918C26.3826 42.0918 23.3492 42.6918 19.9492 42.6918ZM52.4238 42.3918C49.3905 42.3918 46.6572 41.7918 44.2238 40.5918C41.8238 39.3585 39.9405 37.6751 38.5738 35.5418C37.2072 33.3751 36.5238 30.9251 36.5238 28.1918C36.5238 25.4585 37.2072 23.0251 38.5738 20.8918C39.9405 18.7251 41.8238 17.0418 44.2238 15.8418C46.6572 14.6418 49.3905 14.0418 52.4238 14.0418C55.4905 14.0418 58.2238 14.6418 60.6238 15.8418C63.0572 17.0418 64.9405 18.7251 66.2738 20.8918C67.6405 23.0251 68.3238 25.4585 68.3238 28.1918C68.3238 30.9251 67.6405 33.3751 66.2738 35.5418C64.9405 37.6751 63.0572 39.3585 60.6238 40.5918C58.2238 41.7918 55.4905 42.3918 52.4238 42.3918ZM52.4238 33.5918C53.7238 33.5918 54.7905 33.1251 55.6238 32.1918C56.4572 31.2251 56.8738 29.8918 56.8738 28.1918C56.8738 26.4918 56.4572 25.1751 55.6238 24.2418C54.7905 23.3085 53.7238 22.8418 52.4238 22.8418C51.1238 22.8418 50.0572 23.3085 49.2238 24.2418C48.3905 25.1751 47.9738 26.4918 47.9738 28.1918C47.9738 29.8918 48.3905 31.2251 49.2238 32.1918C50.0572 33.1251 51.1238 33.5918 52.4238 33.5918ZM108.061 14.0418C111.361 14.0418 113.994 15.0585 115.961 17.0918C117.961 19.1251 118.961 22.1918 118.961 26.2918V41.8918H107.661V28.2418C107.661 25.1085 106.644 23.5418 104.611 23.5418C103.544 23.5418 102.677 23.9418 102.011 24.7418C101.377 25.5418 101.061 26.8085 101.061 28.5418V41.8918H89.7606V28.2418C89.7606 25.1085 88.7439 23.5418 86.7105 23.5418C85.6439 23.5418 84.7772 23.9418 84.1105 24.7418C83.4772 25.5418 83.1605 26.8085 83.1605 28.5418V41.8918H71.8605V14.5418H82.6105V17.0918C84.6439 15.0585 87.2272 14.0418 90.3605 14.0418C92.1939 14.0418 93.8439 14.3918 95.3105 15.0918C96.7772 15.7585 97.9772 16.7918 98.9105 18.1918C100.011 16.8585 101.344 15.8418 102.911 15.1418C104.477 14.4085 106.194 14.0418 108.061 14.0418ZM160.062 14.0418C163.363 14.0418 165.996 15.0585 167.963 17.0918C169.963 19.1251 170.963 22.1918 170.963 26.2918V41.8918H159.663V28.2418C159.663 25.1085 158.646 23.5418 156.613 23.5418C155.546 23.5418 154.679 23.9418 154.012 24.7418C153.379 25.5418 153.062 26.8085 153.062 28.5418V41.8918H141.762V28.2418C141.762 25.1085 140.746 23.5418 138.712 23.5418C137.646 23.5418 136.779 23.9418 136.113 24.7418C135.479 25.5418 135.163 26.8085 135.163 28.5418V41.8918H123.863V14.5418H134.613V17.0918C136.646 15.0585 139.229 14.0418 142.363 14.0418C144.196 14.0418 145.846 14.3918 147.312 15.0918C148.779 15.7585 149.979 16.7918 150.913 18.1918C152.013 16.8585 153.346 15.8418 154.913 15.1418C156.479 14.4085 158.196 14.0418 160.062 14.0418ZM205.764 14.5418V41.8918H195.014V39.2918C194.014 40.3251 192.848 41.1085 191.514 41.6418C190.181 42.1418 188.764 42.3918 187.264 42.3918C183.798 42.3918 181.014 41.3418 178.914 39.2418C176.814 37.1085 175.764 33.9085 175.764 29.6418V14.5418H187.064V27.6918C187.064 29.5585 187.364 30.8918 187.964 31.6918C188.564 32.4918 189.448 32.8918 190.614 32.8918C191.714 32.8918 192.631 32.4585 193.364 31.5918C194.098 30.6918 194.464 29.2918 194.464 27.3918V14.5418H205.764ZM229.777 14.0418C233.143 14.0418 235.843 15.0585 237.877 17.0918C239.943 19.1251 240.977 22.1918 240.977 26.2918V41.8918H229.677V28.2418C229.677 25.1085 228.56 23.5418 226.327 23.5418C225.06 23.5418 224.027 23.9918 223.227 24.8918C222.46 25.7585 222.077 27.1418 222.077 29.0418V41.8918H210.777V14.5418H221.527V17.2418C222.593 16.1751 223.827 15.3751 225.227 14.8418C226.627 14.3085 228.143 14.0418 229.777 14.0418ZM245.884 14.5418H257.184V41.8918H245.884V14.5418ZM251.534 12.3418C249.501 12.3418 247.851 11.8085 246.584 10.7418C245.351 9.6418 244.734 8.25846 244.734 6.5918C244.734 4.92513 245.351 3.55846 246.584 2.4918C247.851 1.3918 249.501 0.841797 251.534 0.841797C253.601 0.841797 255.251 1.35846 256.484 2.3918C257.717 3.42513 258.334 4.75846 258.334 6.3918C258.334 8.12513 257.717 9.55846 256.484 10.6918C255.251 11.7918 253.601 12.3418 251.534 12.3418ZM282.343 40.9418C280.643 41.9085 278.326 42.3918 275.393 42.3918C271.559 42.3918 268.609 41.4751 266.543 39.6418C264.476 37.7751 263.443 34.9918 263.443 31.2918V24.2918H259.693V16.0418H263.443V8.3918H274.743V16.0418H280.343V24.2918H274.743V31.1918C274.743 32.0251 274.959 32.6751 275.393 33.1418C275.826 33.6085 276.393 33.8418 277.093 33.8418C278.059 33.8418 278.909 33.5918 279.643 33.0918L282.343 40.9418ZM315.152 14.5418L303.902 42.4418C302.469 46.0085 300.686 48.5085 298.552 49.9418C296.419 51.3751 293.802 52.0918 290.702 52.0918C289.169 52.0918 287.619 51.8585 286.052 51.3918C284.519 50.9585 283.302 50.3751 282.402 49.6418L286.152 41.8918C286.719 42.3251 287.352 42.6751 288.052 42.9418C288.786 43.2085 289.486 43.3418 290.152 43.3418C291.386 43.3418 292.319 42.9751 292.952 42.2418L281.452 14.5418H293.052L298.702 29.1918L304.452 14.5418H315.152Z" stroke="#FFB4AC" stroke-width="8" mask="url(#path-1-inside-1_1885_2351)"/>
</svg>
