<svg width="86" height="77" viewBox="0 0 86 77" fill="none" xmlns="http://www.w3.org/2000/svg">
<g clip-path="url(#clip0_956_7306)">
<path d="M40.8451 37.6732C41.883 38.7861 43.5734 38.7861 44.6261 37.6732L60.7731 20.4986C65.4586 15.5056 65.1917 7.2341 59.9428 2.63215C55.3759 -1.38328 48.5702 -0.661407 44.3889 3.79016L42.7282 5.54973L41.0824 3.80519C36.9011 -0.661408 30.0953 -1.38328 25.5285 2.63215C20.2944 7.2341 20.0127 15.5056 24.6981 20.4986L40.8451 37.6732ZM83.8445 49.3435C82.0949 47.7343 79.3666 47.8396 77.528 49.3435L63.8275 60.4573C62.1521 61.8259 60.0614 62.5628 57.8966 62.5628H40.3558C39.051 62.5628 37.9834 61.48 37.9834 60.1566C37.9834 58.8331 39.051 57.7503 40.3558 57.7503H51.9657C54.3232 57.7503 56.5177 56.1111 56.9032 53.7499C57.3925 50.7421 55.1091 48.1253 52.2177 48.1253H28.4939C24.4905 48.1253 20.6206 49.5239 17.5069 52.0806L10.6121 57.7503H2.39777C1.09296 57.7503 0.0253906 58.8331 0.0253906 60.1566V74.5941C0.0253906 75.9175 1.09296 77.0003 2.39777 77.0003H55.3018C57.4518 77.0003 59.5424 76.2634 61.2328 74.8948L83.6517 56.6976C85.9055 54.8778 86.0834 51.3888 83.8445 49.3435Z" fill="#F93059" fill-opacity="0.15"/>
</g>
<defs>
<clipPath id="clip0_956_7306">
<rect width="85.4056" height="77" fill="white" transform="translate(0.0253906)"/>
</clipPath>
</defs>
</svg>
