<svg width="32" height="33" viewBox="0 0 32 33" fill="none" xmlns="http://www.w3.org/2000/svg">
<circle cx="16" cy="16.207" r="16" fill="#D9F5EE"/>
<path fill-rule="evenodd" clip-rule="evenodd" d="M15.8447 8.66797C13.8393 8.66797 13.5882 8.67634 12.8006 8.71227C12.0145 8.74821 11.4774 8.87324 11.0078 9.05586C10.5156 9.24095 10.0691 9.53138 9.69993 9.90745C9.32445 10.2762 9.03385 10.7224 8.84834 11.2149C8.6667 11.6845 8.54117 12.222 8.50524 13.0081C8.4698 13.7952 8.46094 14.0458 8.46094 16.0517C8.46094 18.0576 8.46931 18.3082 8.50524 19.0958C8.54117 19.8819 8.66621 20.419 8.84883 20.8886C9.03392 21.3808 9.32434 21.8273 9.70042 22.1965C10.0692 22.5719 10.5153 22.8625 11.0078 23.0481C11.4774 23.2302 12.0145 23.3552 12.8006 23.3912C13.5882 23.4271 13.8393 23.4355 15.8447 23.4355C17.8501 23.4355 18.1012 23.4271 18.8888 23.3912C19.6749 23.3552 20.2119 23.2302 20.6815 23.0476C21.1738 22.8625 21.6203 22.5721 21.9894 22.196C22.3649 21.8272 22.6555 21.3811 22.841 20.8886C23.0232 20.419 23.1482 19.8819 23.1841 19.0958C23.2201 18.3082 23.2284 18.0571 23.2284 16.0517C23.2284 14.0463 23.2201 13.7952 23.1841 13.0076C23.1482 12.2215 23.0232 11.6845 22.8405 11.2149C22.6552 10.7222 22.3646 10.2758 21.989 9.90696C21.6202 9.53148 21.174 9.24088 20.6815 9.05537C20.2119 8.87373 19.6744 8.74821 18.8883 8.71227C18.1012 8.67683 17.8506 8.66797 15.8447 8.66797ZM15.8447 9.99852C17.8161 9.99852 18.05 10.0059 18.8287 10.0413C19.5484 10.0743 19.9392 10.1939 20.1996 10.2958C20.5442 10.4292 20.7903 10.5897 21.0488 10.8477C21.3072 11.1061 21.4672 11.3522 21.6006 11.6968C21.702 11.9572 21.8221 12.348 21.8551 13.0677C21.8905 13.8464 21.8979 14.0803 21.8979 16.0517C21.8979 18.0232 21.8905 18.257 21.8551 19.0357C21.8221 19.7554 21.7025 20.1463 21.6006 20.4067C21.4824 20.7274 21.2938 21.0175 21.0488 21.2558C20.8105 21.5009 20.5204 21.6895 20.1996 21.8076C19.9392 21.909 19.5484 22.0291 18.8287 22.0621C18.05 22.0975 17.8166 22.1049 15.8447 22.1049C13.8727 22.1049 13.6394 22.0975 12.8607 22.0621C12.141 22.0291 11.7502 21.9095 11.4898 21.8076C11.169 21.6894 10.8789 21.5009 10.6406 21.2558C10.3956 21.0175 10.207 20.7274 10.0888 20.4067C9.9874 20.1463 9.8673 19.7554 9.83431 19.0357C9.79887 18.257 9.79149 18.0232 9.79149 16.0517C9.79149 14.0803 9.79887 13.8464 9.83431 13.0677C9.8673 12.348 9.98691 11.9572 10.0888 11.6968C10.2222 11.3522 10.3827 11.1061 10.6406 10.8477C10.8788 10.6025 11.169 10.414 11.4898 10.2958C11.7502 10.1944 12.141 10.0743 12.8607 10.0413C13.6394 10.0059 13.8732 9.99852 15.8447 9.99852Z" fill="#252A34"/>
<path fill-rule="evenodd" clip-rule="evenodd" d="M15.8441 18.516C15.5205 18.516 15.2002 18.4523 14.9013 18.3285C14.6023 18.2047 14.3307 18.0232 14.102 17.7944C13.8732 17.5656 13.6917 17.294 13.5679 16.9951C13.4441 16.6962 13.3804 16.3758 13.3804 16.0523C13.3804 15.7288 13.4441 15.4084 13.5679 15.1095C13.6917 14.8106 13.8732 14.539 14.102 14.3102C14.3307 14.0814 14.6023 13.8999 14.9013 13.7761C15.2002 13.6523 15.5205 13.5886 15.8441 13.5886C16.4975 13.5886 17.1241 13.8482 17.5862 14.3102C18.0482 14.7722 18.3078 15.3989 18.3078 16.0523C18.3078 16.7057 18.0482 17.3324 17.5862 17.7944C17.1241 18.2564 16.4975 18.516 15.8441 18.516ZM15.8441 12.2571C14.8375 12.2571 13.8722 12.6569 13.1604 13.3687C12.4487 14.0804 12.0488 15.0457 12.0488 16.0523C12.0488 17.0589 12.4487 18.0242 13.1604 18.7359C13.8722 19.4477 14.8375 19.8476 15.8441 19.8476C16.8506 19.8476 17.816 19.4477 18.5277 18.7359C19.2395 18.0242 19.6393 17.0589 19.6393 16.0523C19.6393 15.0457 19.2395 14.0804 18.5277 13.3687C17.816 12.6569 16.8506 12.2571 15.8441 12.2571ZM20.7434 12.1881C20.7434 12.4261 20.6489 12.6543 20.4807 12.8225C20.3124 12.9907 20.0842 13.0853 19.8463 13.0853C19.6084 13.0853 19.3802 12.9907 19.2119 12.8225C19.0437 12.6543 18.9492 12.4261 18.9492 12.1881C18.9492 11.9502 19.0437 11.722 19.2119 11.5538C19.3802 11.3855 19.6084 11.291 19.8463 11.291C20.0842 11.291 20.3124 11.3855 20.4807 11.5538C20.6489 11.722 20.7434 11.9502 20.7434 12.1881Z" fill="#252A34"/>
</svg>
