<svg width="146" height="527" viewBox="0 0 146 527" fill="none" xmlns="http://www.w3.org/2000/svg">
<path fill-rule="evenodd" clip-rule="evenodd" d="M0.101562 61.3734C3.6944 60.8349 7.36944 60.5559 11.1074 60.5559C52.427 60.5559 85.9376 94.5239 85.9376 136.236V526.753H87.1507V136.236C87.1507 93.8338 53.0335 59.3291 11.1074 59.3291C7.37053 59.3291 3.69572 59.6032 0.101562 60.1326V61.3734Z" fill="#B52423"/>
<path fill-rule="evenodd" clip-rule="evenodd" d="M0.0878906 81.4517C3.64654 80.7215 7.32824 80.3382 11.0969 80.3382C41.5749 80.3382 66.4425 105.412 66.4425 136.236V526.753H67.5797V136.236C67.5797 104.721 42.2572 79.1113 11.0969 79.1113C7.33046 79.1113 3.64933 79.4855 0.0878906 80.199V81.4517Z" fill="#B52423"/>
<path fill-rule="evenodd" clip-rule="evenodd" d="M0.101562 41.4169C3.71237 40.9918 7.38501 40.7732 11.1076 40.7732C63.1931 40.7732 105.498 83.559 105.498 136.236V526.753H106.711V136.236C106.711 82.9456 63.7996 39.623 11.1076 39.623C7.38588 39.623 3.71333 39.8392 0.101562 40.2597V41.4169Z" fill="#B52423"/>
<path fill-rule="evenodd" clip-rule="evenodd" d="M0.105469 21.5225C3.72695 21.1702 7.39751 20.99 11.1091 20.99C73.9604 20.99 125.06 72.6704 125.06 136.236V526.753H126.198V136.236C126.198 72.057 74.5669 19.8398 11.1091 19.8398C7.39809 19.8398 3.72758 20.0184 0.105469 20.3675V21.5225Z" fill="#B52423"/>
<path fill-rule="evenodd" clip-rule="evenodd" d="M0.09375 1.66201C3.72296 1.36117 7.3928 1.20778 11.0974 1.20778C84.7146 1.20778 144.609 61.7828 144.609 136.236V526.753H145.746V136.236C145.746 61.1693 85.3969 0.0576172 11.0974 0.0576172C7.39321 0.0576172 3.7234 0.20982 0.09375 0.508365V1.66201Z" fill="#B52423"/>
</svg>
