<svg width="21" height="30" viewBox="0 0 21 30" fill="none" xmlns="http://www.w3.org/2000/svg">
<path d="M10.9785 1.20703C15.9473 1.20703 19.9785 5.19168 19.9785 10.0993C19.9785 15.7462 13.9785 24.695 11.7754 27.7858C11.6839 27.9163 11.5641 28.0225 11.4256 28.0957C11.2871 28.1689 11.1339 28.207 10.9785 28.207C10.8231 28.207 10.6699 28.1689 10.5314 28.0957C10.393 28.0225 10.2731 27.9163 10.1816 27.7858C7.97852 24.6962 1.97852 15.7508 1.97852 10.0993C1.97852 5.19168 6.00977 1.20703 10.9785 1.20703Z" stroke="#B52423" stroke-width="2" stroke-linecap="round" stroke-linejoin="round"/>
<path d="M10.9785 13.207C9.32166 13.207 7.97852 11.8639 7.97852 10.207C7.97852 8.55018 9.32166 7.20703 10.9785 7.20703C12.6354 7.20703 13.9785 8.55018 13.9785 10.207C13.9785 11.8639 12.6354 13.207 10.9785 13.207Z" stroke="#B52423" stroke-width="2" stroke-linecap="round" stroke-linejoin="round"/>
</svg>
