<?xml version="1.0" encoding="UTF-8"?><svg xmlns="http://www.w3.org/2000/svg" viewBox="0 0 1000 912.78"><defs><style>.d{fill:#c6302d;}.e{fill:#fff;stroke:#fff;stroke-miterlimit:10;}</style></defs><g id="a"/><g id="b"><g id="c"><g><path class="d" d="M0,260.28c1.68-15.65,2.78-37.75,6.7-59.35,4.51-24.86,13.16-48.78,26.48-70.4,10.02-16.27,20.39-32.77,33.25-46.73,13.67-14.84,29.38-28.41,46.18-39.57,17.08-11.35,36.2-19.88,55.11-28.09,11.35-4.92,23.86-7.53,36.09-9.95,12.35-2.45,24.97-3.75,37.53-4.89,20.11-1.82,40.12-.6,60.1,2.55,22.12,3.49,43.69,9.22,63.58,19.17,18.49,9.25,36.88,19.53,53.17,32.12,18.2,14.07,34.92,30.4,50.53,47.36,11.45,12.44,20.19,27.42,29.86,41.45,1.84,2.67,2.35,1.53,3.34-.15,13.89-23.62,30.51-45.35,50.66-63.72,16.61-15.14,34.89-28.65,53.41-41.46,17.21-11.91,36.5-20.36,56.79-25.85,13.61-3.68,27.43-6.6,41.26-9.37,8.15-1.63,16.46-2.6,24.74-3.28,5.01-.41,10.1,.32,15.16,.53,10.77,.45,21.61,.3,32.29,1.53,9.55,1.1,19.1,3.13,28.35,5.81,14.41,4.17,29.09,8.07,42.68,14.22,15.91,7.21,31.33,15.88,45.98,25.43,22.52,14.67,41.09,33.93,56.94,55.53,15.87,21.63,27.74,45.41,36.33,70.96,12.05,35.88,14.81,72.83,12.96,110.12-1.23,24.79-3.24,49.77-7.87,74.09-4.77,25.05-11.7,49.93-20.33,73.93-10.17,28.3-24.92,54.69-43.25,78.68-14.78,19.32-29.69,38.69-46.17,56.53-18.72,20.26-38.88,39.23-59.09,58.04-21.7,20.19-44.13,39.6-66.34,59.24-17.84,15.78-35.78,31.46-53.76,47.08-17.65,15.35-35.52,30.45-53.09,45.89-15.29,13.43-30.34,27.14-45.45,40.77-16.86,15.21-33.75,30.39-50.49,45.72-16.97,15.54-33.83,31.2-50.61,46.94-2.26,2.12-3.4,2.17-5.72,0-22.93-21.44-45.9-42.84-69.06-64.03-20.64-18.88-41.37-37.66-62.36-56.14-23.03-20.29-46.44-40.14-69.6-60.28-19.79-17.22-39.55-34.49-59.15-51.92-22.51-20.02-45.35-39.7-67.09-60.53-22.09-21.16-43.4-43.18-64.35-65.48-20.96-22.31-39.32-46.86-53.94-73.73-10.43-19.17-19.65-39.23-27.07-59.74-6.99-19.34-11.49-39.67-15.97-59.81-2.77-12.47-3.92-25.36-4.98-38.14-1.5-18.18-2.25-36.42-3.71-61.11Z"/><g><g><path class="e" d="M194.13,296.92c.9,.29,1.36,.76,1.36,1.42,0,1.03-.56,1.62-1.67,1.79l-2.47,.37-2.53,.12c-1.97-.12-4.67,.25-8.08,1.11-3.17,.82-6.56,1.36-10.18,1.6l-.8,.06c-.78,.08-1.13,.47-1.05,1.17l.25,2.53,.37,2.47c.33,1.77,.37,3.17,.12,4.19-.16,.86-.19,1.91-.06,3.15l.06,1.23-.06,1.17c-.37,2.22-.08,4.36,.86,6.42,.25,.58,.37,1.36,.37,2.34l.25,6.72,.43,6.72,.12,3.45,.12,3.39,.25,5.31c.08,2.14,.23,3.89,.43,5.24,.95,5.68,1.44,11.21,1.48,16.59l.25,3.58,.37,3.58c.29,2.55,.47,5.45,.56,8.7l.12,4.07c.04,1.56-.02,2.94-.19,4.13l-.8,6.79-.68,5.24c-.37,2.43-1.09,4.4-2.16,5.92-1.44,1.97-2.47,3.8-3.08,5.49-.66,1.73-1.91,2.74-3.76,3.02-.86,.12-1.79,.39-2.78,.8l-2.53,.92c-1.19,.37-2.32,.41-3.39,.12-.86-.25-1.63-.39-2.28-.43-1.19-.04-1.97-.66-2.34-1.85l-.43-1.36-.37-1.42-.37-2.47-.31-2.47c-.62-2.92-.93-6.97-.93-12.15l-.06-10.18-.06-10.18,.19-3.95,.25-4.01,.31-16.66,.06-6.85-.06-6.91-.06-5.68-.25-5.68-.19-5.43-.12-5.43,.06-2.78-.12-2.78c-.41-4.15-.6-8.55-.56-13.2l-.12-1.05c-.08-.49-.39-.76-.93-.8l-.74,.06c-1.77,.29-3.93,.47-6.48,.56h-3.27l-3.21,.06c-2.14,.08-4.15,.25-6.05,.49-1.81,.25-4.46,.23-7.96-.06l-.74-.12c-.29-.08-.49-.25-.62-.49-.25-.45,.19-.78,1.3-.99l1.73-.25,1.73-.31c4.69-.86,8.72-1.75,12.09-2.65l1.42-.25,1.48-.25c2.71-.33,5.22-.82,7.53-1.48,6.74-1.85,13.32-3,19.74-3.45l5.06-.06,5,.19,13.51,.68,3.15,.37,2.53,.68Z"/><path class="e" d="M274.56,311.23c2.51,8.92,3.74,19,3.7,30.23,0,4.48-.21,9.52-.62,15.11l-1.36,15.18c-.74,7.53-1.71,13.86-2.9,19-.74,3.04-2.63,4.65-5.68,4.81-1.4,.08-2.55,.7-3.45,1.85-.78,.95-1.93,1.52-3.45,1.73l-1.85,.19c-.74,.08-1.36,.23-1.85,.43-.45,.17-.76-.04-.93-.62l-.12-.86-.12-.74c-.74-3.21-1.17-7.05-1.3-11.54v-11.66l-.43-7.96-.37-8.02c-.08-1.93-.91-2.63-2.47-2.1-2.59,.86-5.63,1.17-9.13,.93l-4.56-.43-4.56-.56c-2.14-.21-3.23,.72-3.27,2.78l-.49,12.58-.56,12.58c-.54,9.38-1.32,17.77-2.34,25.17-.49,3.41-1.46,6.99-2.9,10.73-1.4,3.74-4.3,5.18-8.7,4.32-2.59-.49-4.61-.23-6.05,.8-1.07,.78-2.08,.82-3.02,.12-.9-.7-1.3-1.77-1.17-3.21,.86-9.21,1.34-19.74,1.42-31.59l-.12-15.85-.31-15.79-.06-12.83,.06-12.77c.04-10.4-.16-18.96-.62-25.66-.12-1.89,.68-3.52,2.41-4.87,1.77-1.4,3.95-2.14,6.54-2.22l3.45,.19,3.45,.37c2.71,.33,4.48,1.54,5.31,3.64,.33,.78,.56,1.81,.68,3.08l.19,1.67,.19,1.67,1.48,11.91,1.23,11.91c.21,1.89,.33,4.28,.37,7.16l.12,7.22v.8l.12,.8c.16,.54,.6,.8,1.3,.8l5.31-.19c1.97-.12,3.72-.33,5.24-.62,3.82-.66,7.11-1.95,9.87-3.89,1.73-1.27,2.63-3.02,2.71-5.24l.56-13.69,.62-13.76c.08-2.92,1.44-5.28,4.07-7.09,2.63-1.73,5.59-2.3,8.88-1.73,2.75,.49,4.58,2.41,5.49,5.74Z"/><path class="e" d="M333.71,404.14l-.19,1.3-.25,1.17c-.25,.9-.74,1.69-1.48,2.34-.58,.53-.64,.88-.19,1.05l.62,.06h.68l4.26,.25,4.19,.19,.68,.12,.62,.12c.41,.21,.62,.58,.62,1.11,0,1.15-.64,1.79-1.91,1.91l-2.84,.31-2.84,.19c-2.3,.16-4.19,.43-5.68,.8-2.76,.62-6.77,.62-12.03,0l-5.98-.68c-2.22-.12-4.24,.02-6.05,.43-.45,.08-.8-.02-1.05-.31l-.31-.49-.25-.56c-.33-1.19,.12-1.95,1.36-2.28,2.51-.58,4.52-.88,6.05-.93,2.06-.12,3.08-1.21,3.08-3.27,.04-22.17-2.12-54.76-6.48-97.78-.21-2.3-1.36-3.35-3.45-3.15h-2.59l-2.53-.25c-2.1-.08-3.8,.04-5.12,.37-.66,.16-1.17,0-1.54-.49-.21-.25-.25-.53-.12-.86l.49-.74c.82-1.23,2.1-1.83,3.82-1.79,4.15,.16,9.87-.21,17.15-1.11l8.57-1.11c3.21-.33,6.07-.49,8.57-.49h2.1c.86,0,1.56,.08,2.1,.25,1.52,.29,2.38,1.01,2.59,2.16,.12,.95-.51,1.67-1.91,2.16l-1.85,.56-1.85,.43c-.37,.17-.95,.27-1.73,.31l-1.73,.25-.68,.19-.49,.37c-.37,.37-.33,.78,.12,1.23,1.27,1.15,2.06,2.67,2.34,4.56l.25,2.59,.12,2.47,1.6,11.78,1.42,11.91c1.03,9.05,1.58,16.96,1.67,23.75,.29,14.6-.37,27.8-1.97,39.6Z"/><path class="e" d="M407.29,373.05c.16,.29,.37,.64,.62,1.05l.62,1.23c.58,1.11,1.05,2.04,1.42,2.78,1.23,2.34,2.28,4.46,3.15,6.35,2.47,5.64,3.76,10.43,3.89,14.37v.49c0,9.99-7.4,14.99-22.21,14.99-1.81,0-3.72-.08-5.74-.25l-.68-.06c-7.32-.58-13.08-2.84-17.27-6.79-2.92-2.67-5.59-6.93-8.02-12.77-.91-2.1-1.73-4.54-2.47-7.34l-.8-3.7-.8-3.82-.12-.43-.12-.49v-.37c0-.25,.02-.47,.06-.68,.21-.86,.99-1.38,2.34-1.54h.31c.99,0,1.71,.37,2.16,1.11,.16,.29,.31,.66,.43,1.11l.25,.56,.19,.43c.58,1.56,1.38,3.78,2.41,6.66l1.11,3.27,1.17,3.39c2.51,6.29,5.9,10.9,10.18,13.82,1.36,.86,2.75,1.6,4.19,2.22,1.64,.62,3.15,.93,4.5,.93h.25c5.63-.16,8.45-2.69,8.45-7.59v-.86c-.45-7.16-6.11-19.62-16.96-37.38-.86-1.32-2.24-3.78-4.13-7.4-2.14-3.95-4.28-8-6.42-12.15-5.68-11.27-9.11-19-10.3-23.19-.78-2.88-1.17-5.49-1.17-7.83,0-5.96,2.49-10.43,7.46-13.39,4.03-2.34,9.05-3.52,15.05-3.52,1.81,0,3.7,.1,5.68,.31,3.29,.37,6.07,1.65,8.33,3.82,4.73,4.48,7.61,10.73,8.64,18.75l.06,.31v.37c.04,.12,.06,.25,.06,.37s-.02,.25-.06,.37c-.25,.62-.78,.93-1.6,.93h-.12c-.49,0-.89-.21-1.17-.62-.08-.12-.14-.33-.19-.62l-.12-.31-.06-.25c-.25-.7-.51-1.58-.8-2.65l-.68-2.71c-.62-2.1-1.32-3.82-2.1-5.18-.82-1.4-1.91-2.92-3.27-4.56-2.8-2.75-6.35-4.28-10.67-4.56-.49-.04-.99-.06-1.48-.06-.99,0-1.95,.08-2.9,.25-.49,.08-.99,.17-1.48,.25-.17,.04-.33,.08-.49,.12l-.19,.06h-.12c-1.81,.62-3.13,1.67-3.95,3.15-.37,.7-.56,1.42-.56,2.16,0,.66,.19,1.32,.56,1.97l1.67,2.53,1.67,2.53c1.27,1.97,2.3,3.64,3.08,5,.99,1.89,2.3,4.44,3.95,7.65l1.97,3.82,1.97,3.82,8.08,14.93,8.08,14.99,2.65,4.94c1.07,1.93,1.93,3.58,2.59,4.94Z"/></g><g><path class="e" d="M536.95,402.84l-.18,1.3-.25,1.17c-.25,.9-.74,1.69-1.48,2.34-.58,.53-.64,.88-.19,1.05l.62,.06h.68l4.26,.25,4.19,.19,.68,.12,.62,.12c.41,.21,.62,.58,.62,1.11,0,1.15-.64,1.79-1.91,1.91l-2.84,.31-2.84,.19c-2.3,.16-4.2,.43-5.68,.8-2.76,.62-6.77,.62-12.03,0l-5.98-.68c-2.22-.12-4.24,.02-6.05,.43-.45,.08-.8-.02-1.05-.31l-.31-.49-.25-.56c-.33-1.19,.12-1.95,1.36-2.28,2.51-.58,4.52-.88,6.05-.93,2.06-.12,3.08-1.21,3.08-3.27,.04-22.17-2.12-54.76-6.48-97.78-.21-2.3-1.36-3.35-3.46-3.15h-2.59l-2.53-.25c-2.1-.08-3.8,.04-5.12,.37-.66,.16-1.17,0-1.54-.49-.21-.25-.25-.53-.12-.86l.49-.74c.82-1.23,2.1-1.83,3.82-1.79,4.15,.16,9.87-.21,17.15-1.11l8.58-1.11c3.21-.33,6.07-.49,8.57-.49h2.1c.86,0,1.56,.08,2.1,.25,1.52,.29,2.38,1.01,2.59,2.16,.12,.95-.51,1.67-1.91,2.16l-1.85,.56-1.85,.43c-.37,.17-.95,.27-1.73,.31l-1.73,.25-.68,.19-.49,.37c-.37,.37-.33,.78,.12,1.23,1.27,1.15,2.06,2.67,2.34,4.56l.25,2.59,.12,2.47,1.6,11.78,1.42,11.91c1.03,9.05,1.58,16.96,1.67,23.75,.29,14.6-.37,27.8-1.97,39.6Z"/><path class="e" d="M610.53,371.75c.16,.29,.37,.64,.62,1.05l.62,1.23c.58,1.11,1.05,2.04,1.42,2.78,1.23,2.34,2.28,4.46,3.15,6.35,2.47,5.64,3.76,10.43,3.89,14.37v.49c0,9.99-7.4,14.99-22.21,14.99-1.81,0-3.72-.08-5.74-.25l-.68-.06c-7.32-.58-13.08-2.84-17.27-6.79-2.92-2.67-5.59-6.93-8.02-12.77-.91-2.1-1.73-4.54-2.47-7.34l-.8-3.7-.8-3.82-.12-.43-.12-.49v-.37c0-.25,.02-.47,.06-.68,.21-.86,.99-1.38,2.34-1.54h.31c.99,0,1.71,.37,2.16,1.11,.16,.29,.31,.66,.43,1.11l.25,.56,.18,.43c.58,1.56,1.38,3.78,2.41,6.66l1.11,3.27,1.17,3.39c2.51,6.29,5.9,10.9,10.18,13.82,1.36,.86,2.75,1.6,4.2,2.22,1.64,.62,3.15,.93,4.5,.93h.25c5.63-.16,8.45-2.69,8.45-7.59v-.86c-.45-7.16-6.11-19.62-16.96-37.38-.86-1.32-2.24-3.78-4.13-7.4-2.14-3.95-4.28-8-6.42-12.15-5.67-11.27-9.11-19-10.3-23.19-.78-2.88-1.17-5.49-1.17-7.83,0-5.96,2.49-10.43,7.46-13.39,4.03-2.34,9.05-3.52,15.05-3.52,1.81,0,3.7,.1,5.67,.31,3.29,.37,6.07,1.65,8.33,3.82,4.73,4.48,7.61,10.73,8.64,18.75l.06,.31v.37c.04,.12,.06,.25,.06,.37s-.02,.25-.06,.37c-.25,.62-.78,.93-1.6,.93h-.12c-.49,0-.88-.21-1.17-.62-.08-.12-.14-.33-.18-.62l-.12-.31-.06-.25c-.25-.7-.51-1.58-.8-2.65l-.68-2.71c-.62-2.1-1.32-3.82-2.1-5.18-.82-1.4-1.91-2.92-3.27-4.56-2.8-2.75-6.35-4.28-10.67-4.56-.49-.04-.99-.06-1.48-.06-.99,0-1.95,.08-2.9,.25-.49,.08-.99,.17-1.48,.25-.17,.04-.33,.08-.49,.12l-.19,.06h-.12c-1.81,.62-3.13,1.67-3.95,3.15-.37,.7-.56,1.42-.56,2.16,0,.66,.19,1.32,.56,1.97l1.67,2.53,1.67,2.53c1.27,1.97,2.3,3.64,3.08,5,.99,1.89,2.3,4.44,3.95,7.65l1.97,3.82,1.97,3.82,8.08,14.93,8.08,14.99,2.65,4.94c1.07,1.93,1.93,3.58,2.59,4.94Z"/></g><g><path class="e" d="M789.96,401.73l-.06,3.95v3.95c.04,3.37-.02,6.02-.19,7.96-.25,3.17-1.19,6.62-2.84,10.36-.7,1.52-2,2.9-3.89,4.13-2.26,1.48-4.87,1.97-7.83,1.48l-2.9-.49c-2.26-.49-4.17-.68-5.74-.56-2.67,.16-3.91-1.13-3.7-3.88l.37-6.17,.49-6.23c.37-3.62,.27-6.42-.31-8.39-.49-1.64-.88-3.45-1.17-5.43-.21-1.6-.27-3.27-.18-5,.21-4.32,.21-7.57,0-9.75l.06-1.6c.25-2.71,.16-5.43-.25-8.14l-.06-1.6c.16-3.5,.1-7.63-.19-12.4v-5.8l.19-5.8c.12-3,.12-5.9,0-8.7l-1.79,6.23-2.53,9.44c-.21,.78-.49,1.52-.86,2.22l-1.79,3.82c-.95,1.93-2.2,3.82-3.76,5.68-.74,.86-2.01,1.44-3.82,1.73-.7,.12-1.4-.19-2.1-.93l-1.42-1.48-1.42-1.48c-1.03-1.15-1.85-2.22-2.47-3.21l-1.36-1.97-1.42-1.91c-2.92-4.24-5.82-9.46-8.7-15.67l-1.73-3.89-.8-1.91-.99-1.91,.18,2.22c.25,1.93,.45,4.15,.62,6.66l.31,6.72,.06,5.18-.06,5.12-.12,3.27-.31,3.33-.31,4.44-.25,4.5-.12,5.8-.19,5.8c-.21,4.48-.6,7.98-1.17,10.49-.45,2.02-1.6,4.48-3.46,7.4-.7,1.19-1.95,2.41-3.76,3.64-1.36,.99-3.21,1.34-5.55,1.05-2.3-.25-3.97-.95-5-2.1-.95-1.03-1.54-1.99-1.79-2.9l-1.05-3.27c-.58-1.69-.84-3.25-.8-4.69,.04-.82,0-1.71-.12-2.65-.54-4.32-.7-10.28-.49-17.89l.12-6.48v-6.48l.12-5.31,.06-5.24-.12-3.82-.12-3.82c.04-1.44-.04-3.41-.25-5.92l-.25-2.96-.06-2.96-.18-12.46-.31-4.19c-.08-1.03,.23-1.91,.92-2.65,.99-.99,2.24-2.1,3.76-3.33,1.11-.9,2.67-1.4,4.69-1.48,2.38-.08,4.57,.16,6.54,.74,2.34,.66,3.95,2.06,4.81,4.19l.55,1.11,.68,1.05c.58,.86,.95,1.6,1.11,2.22l.31,.56,.49,.43c2.01,1.89,3.97,4.71,5.86,8.45,1.19,2.43,2.51,5.35,3.95,8.76l3.64,8.94c.45,1.15,1.3,2.8,2.53,4.94l3.89,6.6,.92,1.42c.37,.53,.76,.97,1.17,1.3,.37-.33,.64-.74,.8-1.23l.37-1.42,2.22-8.45c.66-2.71,1.58-5.82,2.78-9.31l3.27-9.25,.8-2.22c1.48-4.65,3.11-8.04,4.87-10.18,.86-1.03,1.25-2.16,1.17-3.39l.06-1.17,.12-1.17c.08-.78,.53-1.25,1.36-1.42l1.6-.12c3.41,.17,6.39,.1,8.94-.19,1.27-.12,2.24,.21,2.9,.99,.25,.25,.58,.45,.99,.62l1.11,.37c1.6,.53,2.78,1.54,3.52,3.02l.68,1.3,.8,1.23c.95,1.52,1.58,3.04,1.91,4.56,1.07,4.52,1.83,8.7,2.28,12.52l.37,3.15c.33,1.85,.37,3.52,.12,5-.21,1.23-.14,2.45,.19,3.64,.45,1.77,.39,3.6-.19,5.49-.41,1.4-.64,3.31-.68,5.74l-.19,9.75c-.08,5.02,.06,9.07,.43,12.15l.19,2.59,.06,2.65v.56l.68,10.8,.12,1.05Z"/><path class="e" d="M861.07,334.74l.62,.19,.62,.31c.41,.29,.56,.72,.43,1.3-.08,.58-.7,1.03-1.85,1.36-2.1,.53-4.65,.82-7.65,.86h-7.65l-3.76,.19-3.76,.31c-3.29,.33-5.8,.49-7.53,.49-1.52,.04-2.22,.88-2.1,2.53l.49,5.31,.62,5.31c.62,3.95,1.56,7.4,2.84,10.36,.86,2.02,1.42,4.54,1.67,7.59l.25,3.89,.25,3.95,.31,6.23,.37,6.23c.29,3.74-.29,7.32-1.73,10.73-.86,2.06-.29,2.76,1.73,2.1,2.47-.78,5.86-.95,10.18-.49l5.12,.49c1.89,.12,3.58,.06,5.06-.19,.41-.08,.82,0,1.23,.25,.41,.25,.68,.6,.8,1.05,.08,.45-.04,.84-.37,1.17l-.55,.37-.56,.31c-1.4,.66-3.11,1.07-5.12,1.23l-2.59,.06-2.59,.12c-11.93,.74-20.93,2.34-27.02,4.81-3,1.19-6.05,.68-9.13-1.54-3.13-2.26-4.42-4.98-3.89-8.14,1.03-7.9,1.13-18.44,.31-31.65l-.49-7.9-.43-7.9c-.33-6.05-.41-11.33-.25-15.85,.21-4.81,.25-10.69,.12-17.64l-.18-8.82-.19-8.82c0-1.19,.6-2.43,1.79-3.7,1.19-1.32,2.34-1.97,3.45-1.97l24.8,.93h.86l.8,.19c.62,.16,.97,.56,1.05,1.17,.08,.66-.17,1.11-.74,1.36l-.8,.25-.8,.19c-1.93,.62-4.24,1.01-6.91,1.17l-3.52,.12-3.52,.06c-1.81,.08-2.39,.86-1.73,2.34,1.19,2.63,2.16,5.98,2.9,10.06l.93,5.18,.92,5.12,.74,2.71c.78,2.51,2.53,3.52,5.24,3.02,9.46-1.73,19.76-1.17,30.91,1.67Z"/></g></g></g></g></g></svg>