<svg width="32" height="33" viewBox="0 0 32 33" fill="none" xmlns="http://www.w3.org/2000/svg">
<circle cx="16" cy="16.207" r="16" fill="#D9F5EE"/>
<path d="M21.1817 15.333C21.0969 15.2923 21.0108 15.2532 20.9235 15.2157C20.7715 12.4153 19.2413 10.8121 16.672 10.7957C16.6604 10.7957 16.6488 10.7957 16.6371 10.7957C15.1003 10.7957 13.8222 11.4516 13.0355 12.6453L14.4486 13.6147C15.0363 12.723 15.9586 12.5329 16.6378 12.5329C16.6457 12.5329 16.6535 12.5329 16.6613 12.533C17.5073 12.5384 18.1457 12.7844 18.5589 13.2641C18.8595 13.6133 19.0607 14.0958 19.1602 14.7049C18.4102 14.5774 17.599 14.5382 16.7318 14.5879C14.289 14.7286 12.7185 16.1533 12.824 18.133C12.8775 19.1372 13.3778 20.0011 14.2326 20.5655C14.9553 21.0425 15.8862 21.2758 16.8536 21.223C18.1311 21.153 19.1334 20.6655 19.8326 19.7743C20.3636 19.0974 20.6994 18.2203 20.8477 17.1151C21.4566 17.4825 21.9078 17.9661 22.157 18.5473C22.5808 19.5354 22.6055 21.1591 21.2806 22.4829C20.1198 23.6425 18.7245 24.1442 16.6158 24.1597C14.2766 24.1424 12.5076 23.3922 11.3574 21.93C10.2803 20.5608 9.72366 18.5832 9.7029 16.052C9.72366 13.5208 10.2803 11.5432 11.3574 10.174C12.5076 8.71186 14.2766 7.9617 16.6157 7.94431C18.9718 7.96183 20.7717 8.7156 21.966 10.1848C22.5515 10.9053 22.993 11.8114 23.2841 12.8678L24.94 12.426C24.5872 11.1257 24.0321 10.0051 23.2767 9.07582C21.7457 7.19222 19.5065 6.22704 16.6215 6.20703H16.61C13.7308 6.22697 11.5167 7.19582 10.0293 9.08662C8.70575 10.7692 8.02301 13.1104 8.00007 16.0451L8 16.052L8.00007 16.059C8.02301 18.9936 8.70575 21.3349 10.0293 23.0175C11.5167 24.9082 13.7308 25.8771 16.61 25.897H16.6215C19.1813 25.8793 20.9856 25.2091 22.4719 23.7241C24.4166 21.7812 24.3581 19.3459 23.7171 17.8509C23.2573 16.7788 22.3806 15.9081 21.1817 15.333ZM16.7621 19.4882C15.6915 19.5485 14.5792 19.068 14.5243 18.0387C14.4837 17.2755 15.0675 16.4239 16.8278 16.3224C17.0294 16.3108 17.2272 16.3051 17.4216 16.3051C18.061 16.3051 18.6592 16.3672 19.203 16.4861C19.0001 19.0194 17.8103 19.4307 16.7621 19.4882Z" fill="#252A34"/>
</svg>
