<svg width="32" height="33" viewBox="0 0 32 33" fill="none" xmlns="http://www.w3.org/2000/svg">
<circle cx="16" cy="16.207" r="16" fill="#D9F5EE"/>
<path d="M20.8632 11.1367C19.9793 10.5604 19.3414 9.63831 19.1424 8.56344C19.0994 8.33121 19.0758 8.0922 19.0758 7.84766H16.2549L16.2504 19.153C16.2029 20.419 15.161 21.4351 13.8836 21.4351C13.4866 21.4351 13.1128 21.3358 12.7836 21.1626C12.0289 20.7654 11.5123 19.9743 11.5123 19.0638C11.5123 17.7562 12.5761 16.6924 13.8836 16.6924C14.1277 16.6924 14.3618 16.7327 14.5833 16.8021V13.9222C14.3541 13.891 14.1212 13.8715 13.8836 13.8715C11.0206 13.8715 8.69141 16.2008 8.69141 19.0638C8.69141 20.8204 9.56905 22.375 10.908 23.315C11.7514 23.907 12.7772 24.256 13.8836 24.256C16.7466 24.256 19.0758 21.9269 19.0758 19.0638V13.3311C20.1822 14.1252 21.5377 14.5931 23.0004 14.5931V11.7722C22.2125 11.7722 21.4787 11.538 20.8632 11.1367Z" fill="#252A34"/>
</svg>
