<svg width="32" height="33" viewBox="0 0 32 33" fill="none" xmlns="http://www.w3.org/2000/svg">
<circle cx="16" cy="16.207" r="16" fill="#D9F5EE"/>
<g clip-path="url(#clip0_2104_3468)">
<path d="M25.6923 9.94689C24.96 10.2681 24.1797 10.481 23.3662 10.5844C24.2031 10.0847 24.8418 9.2995 25.1422 8.35304C24.3618 8.81827 23.5003 9.14689 22.5822 9.33027C21.8412 8.54135 20.7852 8.05273 19.6332 8.05273C17.3982 8.05273 15.5988 9.86689 15.5988 12.0909C15.5988 12.4109 15.6258 12.7186 15.6923 13.0115C12.336 12.8478 9.36615 11.2392 7.37108 8.78873C7.02277 9.39304 6.81846 10.0847 6.81846 10.8293C6.81846 12.2275 7.53846 13.4669 8.61169 14.1844C7.96308 14.1721 7.32677 13.9838 6.78769 13.6872C6.78769 13.6995 6.78769 13.7155 6.78769 13.7315C6.78769 15.6933 8.18708 17.3229 10.0222 17.6983C9.69354 17.7881 9.33538 17.8312 8.96369 17.8312C8.70523 17.8312 8.44431 17.8164 8.19938 17.7623C8.72246 19.361 10.2068 20.5364 11.9717 20.5746C10.5982 21.649 8.85415 22.2964 6.96615 22.2964C6.63508 22.2964 6.31754 22.2817 6 22.241C7.78831 23.3943 9.90769 24.0527 12.1932 24.0527C19.6222 24.0527 23.6837 17.8989 23.6837 12.5647C23.6837 12.3863 23.6775 12.214 23.6689 12.0429C24.4702 11.4743 25.1434 10.7641 25.6923 9.94689Z" fill="#252A34"/>
</g>
<defs>
<clipPath id="clip0_2104_3468">
<rect width="19.6923" height="19.6923" fill="white" transform="translate(6 6.20703)"/>
</clipPath>
</defs>
</svg>
